<svg height="$height" viewBox="0 0 64 66" fill="none" xmlns="http://www.w3.org/2000/svg">
  <path d="M12.5355 7.03525C7.35311 11.1123 3.43183 16.712 1.4565 23.1701C28.1559 40.7599 29.6314 63.4146 29.7078 65.3311C30.4957 65.4046 31.2953 65.4458 32.0976 65.4604C35.2988 27.156 18.3115 11.2711 12.5355 7.03525Z" fill="$colour1" fill-opacity="0.75"/>
  <path d="M0.121963 30.5129C0.0631727 31.3094 0.0249634 32.1119 0.0249634 32.9232C0.0249634 49.4726 13.7553 63.147 29.7049 65.3281C23.1999 44.0169 6.72404 34.002 0.121963 30.5129Z" fill="$colour1"/>
  <path d="M51.4866 7.03525C56.6689 11.1123 60.5901 16.712 62.5655 23.1701C35.8662 40.7599 34.3906 63.4146 34.3141 65.3311C33.5263 65.4046 32.7268 65.4458 31.9243 65.4604C28.7261 27.156 45.7105 11.2711 51.4866 7.03525Z" fill="$colour1"/>
  <path d="M63.9 30.3455C63.9587 31.1421 63.997 31.9445 63.997 32.7558C63.997 49.3051 50.2666 63.1442 34.317 65.3282C40.822 44.017 57.2979 33.8346 63.9 30.3455Z" fill="$colour1" fill-opacity="0.75"/>
  <path d="M21.4302 2.48198C26.7243 3.98994 30.8366 8.33157 32.0095 13.7549V0.0392761C28.2146 0.0392761 24.6254 0.918181 21.4302 2.48198Z" fill="$colour2"/>
  <path d="M32.0125 0.0392761V13.7549C33.1854 8.33157 37.3006 3.98994 42.5917 2.48198C39.3965 0.918181 35.8074 0.0392761 32.0125 0.0392761Z" fill="$colour2" fill-opacity="0.75"/>
</svg>
